<svg xmlns="http://www.w3.org/2000/svg" aria-hidden="true" style="position:absolute;width:0;height:0;overflow:hidden"><defs>
<symbol id="arrow-left" viewBox="0 0 32 32"><path stroke-linecap="round" stroke-linejoin="round" stroke-width="1.333" d="m19.333 6.667-8 9.333 8 9.333"/></symbol>
<symbol id="arrow-right" viewBox="0 0 32 32"><path stroke-linecap="round" stroke-linejoin="round" stroke-width="1.333" d="m12.667 6.667 8 9.333-8 9.333"/></symbol>
<!-- <symbol id="arrow-long-right" viewBox="0 0 32 32"><path d="M31.602 16.418a.762.762 0 0 0 0-1.078l-4.849-4.849a.762.762 0 1 0-1.078 1.078l4.31 4.31-4.31 4.31a.762.762 0 1 0 1.078 1.078l4.849-4.849zm-31.194.224h30.655v-1.524H.408v1.524z"/></symbol> -->
<symbol id="dote" viewBox="0 0 32 32"><path d="M19.631 16.081c0 1.871-1.588 3.387-3.548 3.387s-3.548-1.517-3.548-3.387c0-1.871 1.588-3.387 3.548-3.387s3.548 1.517 3.548 3.387zM7.804 16.081c0 1.871-1.588 3.387-3.548 3.387S.708 17.951.708 16.081c0-1.871 1.588-3.387 3.548-3.387s3.548 1.517 3.548 3.387zM31.456 16.081c0 1.871-1.588 3.387-3.548 3.387s-3.548-1.517-3.548-3.387c0-1.871 1.588-3.387 3.548-3.387s3.548 1.517 3.548 3.387z"/></symbol>
<symbol id="chocolate" viewBox="0 0 32 32"><path d="m13.822 2.413 7.527 7.536.08-.08a.856.856 0 0 1 1.184-.013l.873.873c.305.305.315.77.083 1.094l-.004.007-.143.192 6.16 6.16c.55.55.55 1.43 0 1.98l-9.43 9.43c-.55.55-1.43.55-1.98 0l-4.447-4.447a.853.853 0 0 1-.612.317.842.842 0 0 1-.644-.246l-2.6-2.6a.856.856 0 0 1-.013-1.184l.006-.007.077-.076-7.527-7.527c-.55-.55-.55-1.43 0-1.98l9.43-9.43c.55-.55 1.43-.55 1.98 0v.001zm6.582 8.48-1.756-1.755a.59.59 0 0 0-.85 0l-3.58 3.58a.621.621 0 0 0-.179.43.602.602 0 0 0 .179.43l1.749 1.749.61-.61-1.565-1.565 3.21-3.22 1.569 1.574.613-.613zm-5.076 5.072-1.754-1.754a.59.59 0 0 0-.85 0l-3.59 3.59c-.24.23-.24.61 0 .85l1.752 1.752.616-.616-1.57-1.564 3.22-3.21 1.564 1.563.612-.611zM8.822 8.193l3.58 3.58c.24.24.62.24.85-.01l3.58-3.58a.57.57 0 0 0 .18-.42h.01c0-.15-.06-.31-.18-.43l-3.58-3.58a.602.602 0 0 0-.86 0l-3.58 3.59c-.24.23-.24.61 0 .85zm-5.07 5.07 3.58 3.58c.24.24.62.24.85 0l3.58-3.58a.578.578 0 0 0 .18-.43h.01c0-.16-.06-.31-.18-.43l-3.58-3.58a.59.59 0 0 0-.85 0l-3.59 3.59c-.24.23-.24.61 0 .85zm6.933 8.754 2.362 2.363 9.636-13.04-.655-.655-11.343 11.332z" style="fill:var(--color1, #000)"/><path fill="#fd9222" d="m13.822 2.413 7.527 7.536.08-.08a.856.856 0 0 1 1.184-.013l.873.873c.305.305.315.77.083 1.094l-.004.007-.143.192 6.16 6.16c.55.55.55 1.43 0 1.98l-9.43 9.43c-.55.55-1.43.55-1.98 0l-4.447-4.447a.853.853 0 0 1-.612.317.842.842 0 0 1-.644-.246l-2.6-2.6a.856.856 0 0 1-.013-1.184l.006-.007.077-.076-7.527-7.527c-.55-.55-.55-1.43 0-1.98l9.43-9.43c.55-.55 1.43-.55 1.98 0v.001zm6.582 8.48-1.756-1.755a.59.59 0 0 0-.85 0l-3.58 3.58a.621.621 0 0 0-.179.43.602.602 0 0 0 .179.43l1.749 1.749.61-.61-1.565-1.565 3.21-3.22 1.569 1.574.613-.613zm-5.076 5.072-1.754-1.754a.59.59 0 0 0-.85 0l-3.59 3.59c-.24.23-.24.61 0 .85l1.752 1.752.616-.616-1.57-1.564 3.22-3.21 1.564 1.563.612-.611zM8.822 8.193l3.58 3.58c.24.24.62.24.85-.01l3.58-3.58a.57.57 0 0 0 .18-.42h.01c0-.15-.06-.31-.18-.43l-3.58-3.58a.602.602 0 0 0-.86 0l-3.58 3.59c-.24.23-.24.61 0 .85zm-5.07 5.07 3.58 3.58c.24.24.62.24.85 0l3.58-3.58a.578.578 0 0 0 .18-.43h.01c0-.16-.06-.31-.18-.43l-3.58-3.58a.59.59 0 0 0-.85 0l-3.59 3.59c-.24.23-.24.61 0 .85zm6.933 8.754 2.362 2.363 9.636-13.04-.655-.655-11.343 11.332z" style="fill:var(--color2, #fd9222)"/></symbol>
<symbol id="money" viewBox="0 0 32 32"><path fill="#fd9222" d="M16 2.667c-7.333 0-13.333 6-13.333 13.333s6 13.333 13.333 13.333 13.333-6 13.333-13.333S23.333 2.667 16 2.667zm0 24c-5.867 0-10.667-4.8-10.667-10.667S10.133 5.333 16 5.333 26.667 10.133 26.667 16 21.867 26.667 16 26.667z" style="fill:var(--color2, #fd9222)"/><path fill="#fd9222" d="M17.733 14.667h-3.467c-.667 0-1.2-.533-1.2-1.2s.533-1.2 1.2-1.2h4.933c.8 0 1.333-.533 1.333-1.333s-.533-1.333-1.333-1.333h-1.867v-1.2c0-.8-.533-1.333-1.333-1.333s-1.333.533-1.333 1.333v1.2h-.4c-2.133 0-3.867 1.733-3.867 3.867s1.733 3.867 3.867 3.867h3.333c.667 0 1.2.533 1.2 1.2s-.533 1.2-1.2 1.2h-4.933c-.8 0-1.333.533-1.333 1.333s.533 1.333 1.333 1.333h2v1.2c0 .8.533 1.333 1.333 1.333s1.333-.533 1.333-1.333v-1.2h.4c2.133 0 3.867-1.733 3.867-3.867s-1.733-3.867-3.867-3.867z" style="fill:var(--color2, #fd9222)"/></symbol>
<symbol id="spoon" viewBox="0 0 32 32"><path fill="#fd9222" d="M15.451 14.106a5.154 5.154 0 0 1-1.177-3.282c0-4.324 5.181-8.642 10.362-8.642a5.183 5.183 0 0 1 5.181 5.182c0 5.182-4.317 10.364-8.646 10.364a5.15 5.15 0 0 1-3.281-1.177L5.132 29.312a1.73 1.73 0 0 1-2.445-2.445l12.764-12.761z" style="fill:var(--color2, #fd9222)"/></symbol>
<symbol id="close" viewBox="0 0 32 32"><path stroke-linecap="round" stroke-linejoin="round" stroke-width="2" d="M22.667 9.333 9.334 22.666M9.333 9.333l13.333 13.333"/></symbol>
<symbol id="burger-menu" viewBox="0 0 32 32"><path stroke-linecap="round" stroke-width="1.778" d="M1.188 7.704h28.847M1.185 16h10.778M1.188 24.296h22.199"/></symbol>
<symbol id="arrow-up" viewBox="0 0 32 32"><path d="m27.414 12.586-10-10a2 2 0 0 0-2.828 0l-10 10a2 2 0 1 0 2.828 2.828L14 8.828V28a2 2 0 1 0 4 0V8.828l6.586 6.586c.39.39.902.586 1.414.586s1.024-.195 1.414-.586a2 2 0 0 0 0-2.828z"/></symbol>
<symbol id="instagram" viewBox="0 0 32 32"><path stroke-linecap="round" stroke-linejoin="round" stroke-width="2.667" d="M22.667 2.667H9.334a6.667 6.667 0 0 0-6.667 6.667v13.333a6.667 6.667 0 0 0 6.667 6.667h13.333a6.667 6.667 0 0 0 6.667-6.667V9.334a6.667 6.667 0 0 0-6.667-6.667z"/><path stroke-linecap="round" stroke-linejoin="round" stroke-width="2.667" d="M21.333 15.16a5.329 5.329 0 0 1-2.878 5.546 5.338 5.338 0 0 1-6.169-.992 5.33 5.33 0 0 1-.992-6.169 5.336 5.336 0 0 1 10.04 1.615zM23.333 8.667h.013"/></symbol>
<symbol id="twitter" viewBox="0 0 32 32"><path stroke-linecap="round" stroke-linejoin="round" stroke-width="2.667" d="M30.667 4a14.542 14.542 0 0 1-4.187 2.04 5.975 5.975 0 0 0-6.637-1.661A5.981 5.981 0 0 0 16 10.04v1.333c-2.343.061-4.665-.459-6.759-1.513S4.68 6.297 3.333 4.379c0 0-4.667 12.954 7.333 18.287a15.519 15.519 0 0 1-9.333 2.667C13.333 32 28 25.333 28 10a5.966 5.966 0 0 0-.107-1.107A10.288 10.288 0 0 0 30.666 4z"/></symbol>
<symbol id="basket" viewBox="0 0 32 32"><path stroke-linecap="round" stroke-linejoin="round" stroke-width="2.667" d="m20 14.667-1.333 12M25.333 14.667 20 5.334M2.667 14.667h26.667M4.667 14.667 6.8 24.534a2.667 2.667 0 0 0 2.667 2.133h13.067a2.666 2.666 0 0 0 2.667-2.133l2.267-9.867M6 20.667h20M6.667 14.667 12 5.334M12 14.667l1.333 12"/></symbol>
<symbol id="logo" viewBox="0 0 32 32"><path fill="#fcf1e0" d="M3.944 20.076 14.721 2.652l.64-.674 8.236 5.491.056 3.314 2.01 3.28-8.88 14.077-12.839-8.063z" style="fill:var(--color3, #fcf1e0)"/><path fill="none" stroke="#fd9222" stroke-linecap="round" stroke-linejoin="round" stroke-width="2.667" d="M21.635 23.88 7.45 15.016m3.911-6.417 14.185 8.864M10.63 25.864l11.736-19.25m4.81 8.175c-3.04-1.899-4.234-3.384-2.278-6.592l-9.626-6.015-11.736 19.25 14.186 8.864 9.454-15.507z" style="stroke:var(--color2, #fd9222)"/></symbol>
<symbol id="letter" viewBox="0 0 32 32"><path stroke-linecap="round" stroke-linejoin="round" stroke-width="1.333" d="M26.667 5.333H5.334A2.667 2.667 0 0 0 2.667 8v16a2.667 2.667 0 0 0 2.667 2.667h21.333A2.667 2.667 0 0 0 29.334 24V8a2.667 2.667 0 0 0-2.667-2.667z"/><path stroke-linecap="round" stroke-linejoin="round" stroke-width="1.333" d="m29.333 9.334-11.96 7.6a2.588 2.588 0 0 1-2.746 0l-11.96-7.6"/></symbol>
<symbol id="flag" viewBox="0 0 32 32"><path fill="gold" d="M31.832 5.058H.243v23.508h31.589V5.058z" style="fill:var(--color4, #ffd700)"/><path fill="#0057b7" d="M.243 5.058h31.589v11.754H.243V5.058z" style="fill:var(--color5, #0057b7)"/></symbol>
<!-- <symbol id="arrow-long-left" viewBox="0 0 40 32"><path stroke-linecap="round" stroke-linejoin="round" stroke-width="2" d="M38.668 16H1.335m0 0 14-14m-14 14 14 14"/></symbol> -->
<!-- <symbol id="minus" viewBox="0 0 32 32"><path stroke-width="1.143" d="M16.002 31.237c8.416 0 15.238-6.822 15.238-15.238S24.418.761 16.002.761.764 7.583.764 15.999s6.822 15.238 15.238 15.238z"/><path stroke-linecap="round" stroke-width="1.143" d="M20.571 16h-9.143"/></symbol> -->
<!-- <symbol id="plus" viewBox="0 0 32 32"><path stroke-width="1.143" d="M16.002 31.237c8.416 0 15.238-6.822 15.238-15.238S24.418.761 16.002.761.764 7.583.764 15.999s6.822 15.238 15.238 15.238z"/><path stroke-linecap="round" stroke-width="1.143" d="M20.571 16H16m0 0h-4.571M16 16v-4.571M16 16v4.571"/></symbol> -->
<symbol id="mail" viewBox="0 0 32 32"><path stroke-linecap="round" stroke-linejoin="round" stroke-width="2.667" d="M5.333 5.333h21.333c1.467 0 2.667 1.2 2.667 2.667v16c0 1.467-1.2 2.667-2.667 2.667H5.333A2.675 2.675 0 0 1 2.666 24V8c0-1.467 1.2-2.667 2.667-2.667z"/><path stroke-linecap="round" stroke-linejoin="round" stroke-width="2.667" d="M29.333 8 16 17.333 2.667 8"/></symbol>
<symbol id="user" viewBox="0 0 32 32"><path stroke-linecap="round" stroke-linejoin="round" stroke-width="2.667" d="M26.667 28v-2.667A5.332 5.332 0 0 0 21.334 20H10.667a5.332 5.332 0 0 0-5.333 5.333V28M16 14.667A5.333 5.333 0 1 0 16 4a5.333 5.333 0 0 0 0 10.667z"/></symbol>
<symbol id="error" viewBox="0 0 32 32"><path fill="#e74a3b" d="M14.4 20.8h3.2V24h-3.2v-3.2zm0-12.8h3.2v9.6h-3.2V8zm1.584-8C7.152 0 0 7.168 0 16s7.152 16 15.984 16C24.832 32 32 24.832 32 16S24.832 0 15.984 0zM16 28.8C8.928 28.8 3.2 23.072 3.2 16S8.928 3.2 16 3.2c7.072 0 12.8 5.728 12.8 12.8S23.072 28.8 16 28.8z" style="fill:var(--color6, #e74a3b)"/></symbol>
<symbol id="arrow-down" viewBox="0 0 32 32"><path d="M16.947 17.867a1.334 1.334 0 0 1-1.894 0l-6.107-6.12a1.334 1.334 0 1 0-1.894 1.88l6.12 6.12a4.001 4.001 0 0 0 5.654 0l6.12-6.12a1.337 1.337 0 0 0-.434-2.172 1.331 1.331 0 0 0-1.46.292l-6.107 6.12z"/></symbol>
<symbol id="arrow-long-left" viewBox="0 0 32 32"><path stroke-linecap="round" stroke-linejoin="round" stroke-width="1.667" d="M8 10.667 2.667 16 8 21.333M2.667 16h26.667"/></symbol>
<symbol id="arrow-long-right" viewBox="0 0 32 32"><path stroke-linecap="round" stroke-linejoin="round" stroke-width="1.667" d="M24 10.667 29.333 16 24 21.333M2.667 16h26.667"/></symbol>
<!-- <symbol id="minus" viewBox="0 0 160 32"><path stroke-linecap="round" stroke-width="16" d="M144 16H16"/></symbol> -->
<!-- <symbol id="plus" viewBox="0 0 32 32"><path stroke-linecap="round" stroke-width="3.2" d="M28.8 16H16m0 0H3.2M16 16V3.2M16 16v12.8"/></symbol> -->
<symbol id="minus" viewBox="0 0 32 32"><path fill="none" stroke="#cacaca" stroke-width="1.143" d="M16.002 31.237c8.416 0 15.238-6.822 15.238-15.238S24.418.761 16.002.761.764 7.583.764 15.999s6.822 15.238 15.238 15.238z" style="stroke:var(--color1, #cacaca)"/><path fill="none" stroke="#1f1b1a" stroke-linecap="round" stroke-width="1.143" d="M20.571 16h-9.143" style="stroke:var(--color2, #1f1b1a)"/></symbol>
<symbol id="plus" viewBox="0 0 32 32"><path fill="none" stroke="#cacaca" stroke-width="1.143" d="M16.002 31.237c8.416 0 15.238-6.822 15.238-15.238S24.418.761 16.002.761.764 7.583.764 15.999s6.822 15.238 15.238 15.238z" style="stroke:var(--color1, #cacaca)"/><path fill="none" stroke="#1f1b1a" stroke-linecap="round" stroke-width="1.143" d="M20.571 16H16m0 0h-4.571M16 16v-4.571M16 16v4.571" style="stroke:var(--color2, #1f1b1a)"/></symbol>
<symbol id="can" viewBox="0 0 29 32"><path stroke-linecap="round" stroke-width="1.333" d="M10.268 4.888c.321-.911.917-1.7 1.706-2.257s1.731-.857 2.696-.857a4.672 4.672 0 0 1 4.402 3.114m8.82 3.111H1.448m23.851 3.889-.715 10.733c-.275 4.128-.412 6.193-1.758 7.451-1.345 1.26-3.416 1.26-7.554 1.26h-1.204c-4.138 0-6.208 0-7.554-1.26-1.346-1.258-1.484-3.323-1.758-7.451L4.04 11.888m6.741 3.889.778 7.778m7-7.778-.778 7.778"/></symbol>
</defs></svg>